<?xml version="1.0" standalone="no"?>
<!DOCTYPE svg PUBLIC "-//W3C//DTD SVG 20010904//EN"
 "http://www.w3.org/TR/2001/REC-SVG-20010904/DTD/svg10.dtd">
<svg version="1.0" xmlns="http://www.w3.org/2000/svg"
 width="512.000000pt" height="512.000000pt" viewBox="0 0 512.000000 512.000000"
 preserveAspectRatio="xMidYMid meet">

<g transform="translate(0.000000,512.000000) scale(0.100000,-0.100000)"
fill="#000000" stroke="none">
<path d="M350 5109 c-164 -32 -310 -182 -340 -349 -7 -37 -9 -795 -8 -2235 l3
-2180 23 -57 c47 -117 143 -213 260 -260 l57 -23 1910 -3 c1051 -1 1920 0
1932 3 13 3 30 19 39 36 13 26 13 36 3 60 -6 16 -17 33 -23 37 -6 4 -873 9
-1926 12 l-1915 5 -45 23 c-60 31 -112 83 -141 140 l-24 47 -3 1808 -2 1807
199 0 c185 0 200 1 225 21 36 28 36 80 0 108 -25 20 -40 21 -226 21 l-199 0 3
313 c3 307 3 313 27 359 29 57 81 109 141 140 l45 23 2195 0 2195 0 47 -24
c57 -29 109 -81 140 -141 22 -44 23 -52 26 -357 l3 -313 -2058 0 c-1602 -1
-2062 -3 -2074 -13 -31 -24 -42 -56 -28 -88 6 -17 20 -34 30 -39 11 -6 777
-10 2073 -10 l2056 0 -2 -1807 -3 -1808 -24 -47 c-29 -57 -81 -109 -141 -140
-39 -19 -64 -23 -181 -28 -116 -4 -140 -8 -158 -24 -31 -28 -28 -79 7 -106 26
-21 35 -22 167 -17 113 3 151 8 197 26 115 44 213 142 260 259 l23 57 0 2215
0 2215 -23 57 c-47 117 -143 213 -260 260 l-57 23 -2190 1 c-1238 1 -2210 -2
-2235 -7z"/>
<path d="M561 4594 c-12 -15 -21 -34 -21 -44 0 -10 9 -29 21 -44 41 -52 129
-23 129 44 0 67 -88 96 -129 44z"/>
<path d="M881 4594 c-24 -31 -26 -43 -10 -78 16 -34 57 -47 96 -31 73 31 49
135 -32 135 -24 0 -39 -7 -54 -26z"/>
<path d="M1200 4600 c-45 -45 -11 -120 54 -120 37 0 76 36 76 70 0 10 -9 29
-21 44 -26 33 -79 36 -109 6z"/>
<path d="M1590 4600 c-38 -38 -22 -100 31 -119 45 -16 2173 -16 2218 0 53 19
69 81 31 119 -20 20 -33 20 -1140 20 -1107 0 -1120 0 -1140 -20z"/>
<path d="M4150 4600 c-22 -22 -26 -60 -10 -90 16 -30 67 -40 205 -40 138 0
189 10 205 40 16 30 12 68 -10 90 -18 18 -33 20 -195 20 -162 0 -177 -2 -195
-20z"/>
<path d="M614 3633 c-53 -10 -75 -83 -39 -123 16 -18 31 -20 127 -20 95 0 110
2 128 20 38 38 22 100 -31 119 -31 11 -140 13 -185 4z"/>
<path d="M1064 3626 c-48 -21 -60 -80 -24 -116 19 -19 33 -20 523 -20 565 0
547 -2 547 69 0 26 -7 44 -21 57 -20 18 -45 19 -508 21 -393 2 -492 0 -517
-11z"/>
<path d="M2314 3626 c-48 -21 -60 -80 -24 -116 18 -18 33 -20 195 -20 162 0
177 2 195 20 38 38 22 100 -31 119 -46 16 -296 14 -335 -3z"/>
<path d="M2909 3629 c-25 -9 -49 -45 -49 -73 0 -7 9 -25 21 -40 l20 -26 525 0
c511 0 525 1 544 20 25 25 26 71 1 101 l-19 24 -509 2 c-310 1 -518 -2 -534
-8z"/>
<path d="M4174 3631 c-26 -11 -54 -49 -54 -72 0 -9 9 -28 21 -43 l20 -26 178
0 c200 0 211 4 211 72 0 65 -20 73 -199 75 -86 2 -166 -1 -177 -6z"/>
<path d="M605 3270 c-49 -19 -64 -82 -30 -120 16 -18 31 -20 127 -20 95 0 110
2 128 20 38 38 22 100 -31 119 -37 13 -164 14 -194 1z"/>
<path d="M1064 3266 c-48 -21 -60 -80 -24 -116 18 -18 33 -20 195 -20 162 0
177 2 195 20 38 38 22 100 -31 119 -46 16 -296 14 -335 -3z"/>
<path d="M1631 3269 c-52 -21 -67 -78 -31 -117 l21 -22 524 0 c512 0 526 1
545 20 38 38 22 100 -31 119 -41 14 -993 14 -1028 0z"/>
<path d="M2919 3269 c-25 -9 -49 -45 -49 -73 0 -7 9 -25 21 -40 l20 -26 173 0
c199 0 216 5 216 69 0 69 -18 76 -199 78 -86 1 -168 -2 -182 -8z"/>
<path d="M3504 3266 c-48 -21 -60 -80 -24 -116 19 -19 33 -20 523 -20 565 0
547 -2 547 69 0 26 -7 44 -21 57 -20 18 -45 19 -508 21 -393 2 -492 0 -517
-11z"/>
<path d="M605 2910 c-49 -19 -64 -82 -30 -120 16 -18 31 -20 127 -20 95 0 110
2 128 20 38 38 22 100 -31 119 -37 13 -164 14 -194 1z"/>
<path d="M1064 2906 c-48 -21 -60 -80 -24 -116 19 -19 33 -20 320 -20 287 0
301 1 320 20 38 38 22 100 -31 119 -49 17 -545 14 -585 -3z"/>
<path d="M2382 2908 c-321 -31 -601 -274 -683 -593 -28 -110 -28 -280 0 -389
77 -293 304 -513 599 -580 82 -18 246 -21 324 -5 151 31 291 105 400 213 243
239 309 609 161 906 -44 86 -74 106 -121 79 -43 -24 -50 -61 -23 -117 48 -98
63 -155 68 -267 10 -204 -44 -345 -186 -485 -96 -96 -165 -137 -281 -169 -91
-26 -239 -28 -325 -6 -192 50 -347 179 -430 360 -41 88 -58 167 -57 272 0 109
15 169 68 281 62 129 156 223 286 286 109 52 179 68 297 67 102 0 179 -19 280
-66 89 -43 122 -44 150 -9 39 49 20 89 -62 131 -152 79 -294 107 -465 91z"/>
<path d="M3361 2909 c-53 -21 -67 -80 -28 -117 l23 -22 575 0 c645 0 619 -3
619 69 0 26 -7 44 -21 57 -20 18 -46 19 -583 21 -348 1 -570 -2 -585 -8z"/>
<path d="M605 2550 c-49 -19 -64 -82 -30 -120 16 -18 31 -20 127 -20 95 0 110
2 128 20 38 38 22 100 -31 119 -37 13 -164 14 -194 1z"/>
<path d="M1064 2546 c-48 -21 -60 -80 -24 -116 19 -19 33 -20 203 -20 172 0
185 1 202 20 25 28 23 76 -4 103 -20 21 -32 22 -184 24 -121 2 -170 -1 -193
-11z"/>
<path d="M3605 2553 c-36 -9 -55 -34 -55 -73 0 -73 -19 -70 502 -70 438 0 466
1 481 18 24 27 22 85 -4 108 -20 18 -44 19 -463 21 -242 0 -450 -1 -461 -4z"/>
<path d="M2200 2390 c-12 -12 -20 -33 -20 -52 0 -28 14 -47 92 -125 l93 -93
-93 -93 c-78 -78 -92 -97 -92 -125 0 -41 30 -72 71 -72 26 0 48 16 126 92 l93
92 93 -92 c78 -78 97 -92 125 -92 41 0 72 30 72 71 0 26 -16 48 -92 125 l-92
94 92 94 c76 77 92 99 92 125 0 41 -31 71 -72 71 -28 0 -47 -14 -125 -92 l-93
-92 -93 92 c-78 76 -100 92 -126 92 -18 0 -40 -9 -51 -20z"/>
<path d="M605 2190 c-49 -19 -64 -82 -30 -120 16 -18 31 -20 127 -20 95 0 110
2 128 20 38 38 22 100 -31 119 -37 13 -164 14 -194 1z"/>
<path d="M1064 2186 c-48 -21 -60 -80 -24 -116 19 -19 33 -20 203 -20 172 0
185 1 202 20 25 28 23 76 -4 103 -20 21 -32 22 -184 24 -121 2 -170 -1 -193
-11z"/>
<path d="M3605 2193 c-36 -9 -55 -34 -55 -73 0 -73 -19 -70 502 -70 438 0 466
1 481 18 24 27 22 85 -4 108 -20 18 -44 19 -463 21 -242 0 -450 -1 -461 -4z"/>
<path d="M614 1833 c-53 -10 -75 -83 -39 -123 16 -18 31 -20 127 -20 95 0 110
2 128 20 38 38 22 100 -31 119 -31 11 -140 13 -185 4z"/>
<path d="M1064 1826 c-48 -22 -60 -80 -24 -116 19 -19 33 -20 203 -20 172 0
185 1 202 20 25 28 23 76 -4 103 -20 21 -32 22 -184 25 -122 1 -170 -1 -193
-12z"/>
<path d="M3605 1833 c-36 -9 -55 -34 -55 -73 0 -73 -19 -70 502 -70 438 0 466
1 481 18 24 27 22 85 -4 108 -20 18 -44 19 -463 21 -242 0 -450 -1 -461 -4z"/>
<path d="M614 1473 c-53 -10 -75 -83 -39 -123 16 -18 31 -20 127 -20 95 0 110
2 128 20 38 38 22 100 -31 119 -31 11 -140 13 -185 4z"/>
<path d="M1064 1466 c-48 -21 -60 -80 -24 -116 19 -19 33 -20 320 -20 287 0
301 1 320 20 38 38 22 100 -31 119 -49 17 -545 14 -585 -3z"/>
<path d="M3361 1469 c-52 -21 -67 -78 -31 -117 l21 -22 583 0 c552 0 584 1
599 18 24 27 22 85 -4 108 -20 18 -46 19 -583 21 -348 1 -570 -2 -585 -8z"/>
<path d="M614 1113 c-53 -10 -75 -83 -39 -123 16 -18 31 -20 127 -20 95 0 110
2 128 20 38 38 22 100 -31 119 -31 11 -140 13 -185 4z"/>
<path d="M1064 1106 c-48 -21 -60 -80 -24 -116 19 -19 33 -20 523 -20 565 0
547 -2 547 69 0 26 -7 44 -21 57 -20 18 -45 19 -508 21 -393 2 -492 0 -517
-11z"/>
<path d="M2314 1106 c-48 -21 -60 -80 -24 -116 18 -18 33 -20 195 -20 162 0
177 2 195 20 38 38 22 100 -31 119 -46 16 -296 14 -335 -3z"/>
<path d="M2909 1109 c-25 -9 -49 -45 -49 -73 0 -7 9 -25 21 -40 l20 -26 525 0
c511 0 525 1 544 20 25 25 26 71 1 101 l-19 24 -509 2 c-310 1 -518 -2 -534
-8z"/>
<path d="M4174 1111 c-26 -11 -54 -49 -54 -72 0 -9 9 -28 21 -43 l20 -26 178
0 c200 0 211 4 211 72 0 65 -20 73 -199 75 -86 2 -166 -1 -177 -6z"/>
<path d="M614 753 c-53 -10 -75 -83 -39 -123 16 -18 31 -20 127 -20 95 0 110
2 128 20 38 38 22 100 -31 119 -31 11 -140 13 -185 4z"/>
<path d="M1064 746 c-48 -21 -60 -80 -24 -116 18 -18 33 -20 195 -20 162 0
177 2 195 20 38 38 22 100 -31 119 -46 16 -296 14 -335 -3z"/>
<path d="M1631 749 c-52 -21 -67 -78 -31 -117 l21 -22 524 0 c512 0 526 1 545
20 38 38 22 100 -31 119 -41 14 -993 14 -1028 0z"/>
<path d="M2919 749 c-25 -9 -49 -45 -49 -73 0 -7 9 -25 21 -40 l20 -26 178 0
c200 0 211 4 211 72 0 65 -20 73 -199 75 -86 1 -168 -2 -182 -8z"/>
<path d="M3504 746 c-48 -21 -60 -80 -24 -116 19 -19 33 -20 528 -20 480 0
510 1 525 18 24 27 22 85 -4 108 -20 18 -45 19 -508 21 -393 2 -492 0 -517
-11z"/>
</g>
</svg>
